<svg width="987" height="170" xmlns="http://www.w3.org/2000/svg" overflow="hidden"><g clip-path="url(#clip0)"><path d="M275.076 81.575c-5.268 0-9.569 1.952-12.901 5.856-3.333 3.904-4.999 9.823-4.999 17.758 0 8.696 1.634 14.996 4.903 18.9 3.269 3.904 7.411 5.856 12.426 5.856 4.634 0 8.522-1.921 11.664-5.761 3.142-3.84 4.713-10.299 4.713-19.376 0-7.998-1.539-13.87-4.618-17.615-3.079-3.745-6.808-5.618-11.188-5.618zm642.668-2.285c-5.65 0-10.315 2.174-13.997 6.522-3.682 4.349-5.522 10.966-5.522 19.853 0 9.013 1.825 15.678 5.474 19.995 3.65 4.316 8.237 6.474 13.759 6.474 5.586 0 10.172-2.126 13.759-6.379 3.586-4.253 5.379-11.077 5.379-20.471 0-8.76-1.809-15.282-5.427-19.567-3.618-4.284-8.093-6.427-13.425-6.427zm-515.715-3.713c-6.157 0-11.076 2.444-14.758 7.331-2.349 3.047-3.84 7.586-4.475 13.616h38.181c-.762-7.49-2.777-12.854-6.046-16.091-3.269-3.238-7.57-4.856-12.902-4.856zm-325 0c-6.157 0-11.076 2.444-14.758 7.331-2.349 3.047-3.84 7.586-4.475 13.616h38.181c-.762-7.49-2.777-12.854-6.046-16.091-3.27-3.238-7.57-4.856-12.902-4.856zM917.172 52.63c20.249 0 35.547 5.872 45.894 17.615 8.315 9.458 12.473 21.106 12.473 34.944 0 15.551-5.157 28.294-15.472 38.228-10.315 9.935-24.582 14.902-42.799 14.902-16.25 0-29.39-4.126-39.419-12.378-12.315-10.22-18.472-23.614-18.472-40.181 0-15.425 5.205-28.136 15.615-38.134 10.41-9.997 24.47-14.996 42.18-14.996zm-255.762 0c16.504 0 29.088 2.952 37.753 8.855 8.664 5.903 14.742 14.536 18.233 25.898l-36.467 4.856c-1.142-4.316-3.221-7.57-6.236-9.76-3.016-2.189-7.062-3.284-12.14-3.284-6.411 0-11.601 2.297-15.568 6.89-3.967 4.594-5.951 11.549-5.951 20.864 0 8.3 1.968 14.605 5.904 18.913 3.935 4.309 8.95 6.463 15.043 6.463 5.079 0 9.347-1.301 12.807-3.904 3.459-2.602 6.046-6.601 7.76-11.997l36.848 4.189c-2.031 7.681-5.364 14.33-9.998 19.948-4.633 5.618-10.553 9.982-17.757 13.092-7.205 3.11-16.361 4.666-27.47 4.666-10.727 0-19.661-.999-26.803-2.997-7.141-1.997-13.282-5.232-18.424-9.703-5.141-4.471-9.172-9.719-12.092-15.744-2.92-6.024-4.38-14.015-4.38-23.972 0-10.402 1.778-19.059 5.332-25.972 2.603-5.073 6.157-9.623 10.664-13.65 4.507-4.028 9.141-7.024 13.902-8.99 7.553-3.107 17.234-4.66 29.04-4.66zm-260.999 0c14.472 0 25.898 2.19 34.277 6.57 8.379 4.38 14.758 10.727 19.138 19.043 4.38 8.315 6.57 19.138 6.57 32.468v4.38h-77.695c.698 6.221 2.38 10.854 5.046 13.901 3.745 4.38 8.633 6.57 14.663 6.57 3.809 0 7.427-.952 10.855-2.856 2.094-1.206 4.348-3.333 6.76-6.38l38.181 3.523c-5.84 10.157-12.886 17.44-21.138 21.852-8.252 4.412-20.09 6.618-35.515 6.618-13.393 0-23.93-1.889-31.611-5.666-7.681-3.777-14.044-9.775-19.091-17.995-5.046-8.221-7.569-17.885-7.569-28.993 0-15.806 5.062-28.597 15.186-38.372 10.125-9.775 24.106-14.663 41.943-14.663zm-325 0c14.472 0 25.898 2.19 34.277 6.57 8.379 4.38 14.758 10.727 19.138 19.043 4.38 8.315 6.57 19.138 6.57 32.468v4.38H57.701c.698 6.221 2.38 10.854 5.046 13.901 3.745 4.38 8.633 6.57 14.663 6.57 3.809 0 7.427-.952 10.855-2.856 2.094-1.206 4.348-3.333 6.76-6.38l38.181 3.523c-5.84 10.157-12.886 17.44-21.138 21.852-8.252 4.412-20.09 6.618-35.515 6.618-13.393 0-23.93-1.889-31.611-5.666-7.68-3.777-14.044-9.775-19.09-17.995-5.047-8.221-7.57-17.885-7.57-28.993 0-15.806 5.062-28.597 15.186-38.372C43.593 57.518 57.575 52.63 75.411 52.63zm658.727-36.182h38.752v51.416c5.269-5.459 10.506-9.362 15.711-11.711s11.362-3.523 18.471-3.523c10.537 0 18.837 3.206 24.899 9.617 6.062 6.41 9.093 16.25 9.093 29.516v64.27h-38.943v-55.605c0-6.348-1.174-10.839-3.523-13.473-2.348-2.634-5.649-3.951-9.902-3.951-4.697 0-8.506 1.777-11.426 5.332-2.92 3.554-4.38 9.934-4.38 19.138v48.559h-38.752zm-515.81 0h39.133v48.37c3.872-4.063 8.268-7.11 13.188-9.141 4.919-2.031 10.362-3.047 16.329-3.047 12.314 0 22.502 4.428 30.564 13.282 8.061 8.855 12.092 21.567 12.092 38.134 0 11.045-1.841 20.773-5.522 29.183-3.682 8.411-8.776 14.695-15.282 18.853-6.507 4.158-13.727 6.237-21.662 6.237-6.792 0-13.012-1.46-18.662-4.38-4.253-2.285-8.886-6.57-13.901-12.854v14.948h-36.277zm-63.857 0h38.847v139.585h-38.847z" fill="#015B84" fill-rule="evenodd"/><path d="M275.109 82.099l-3.646.364-3.329 1.03-2.964 1.814-2.608 2.487-2.126 3.22-1.527 3.97-.93 4.77-.304 5.495.313 6.009.922 5.081 1.53 4.16 2.065 3.28 2.546 2.486 2.841 1.813 3.139 1.026 3.518.364 3.203-.363 2.951-1.024 2.656-1.75 2.422-2.422 2.003-3.277 1.468-4.284.868-5.271.307-6.256-.312-5.572-.861-4.648-1.406-3.974-1.94-3.093-2.361-2.36-2.597-1.691-2.766-1.023zm-.045-1a.5.5 0 01.108 0l3.188.375a.502.502 0 01.115.028l2.875 1.062a.49.49 0 01.099.05l2.688 1.75c.029.02.056.041.08.066l2.438 2.437c.026.027.05.056.07.088l2 3.188a.588.588 0 01.048.099l1.437 4.062c.009.025.016.05.02.076l.883 4.813.313 5.678-.319 6.369-.875 5.312a.436.436 0 01-.02.081l-1.5 4.375a.527.527 0 01-.047.099l-2.062 3.375a.5.5 0 01-.073.092l-2.5 2.5a.443.443 0 01-.079.064l-2.75 1.813a.5.5 0 01-.111.055l-3.062 1.062a.498.498 0 01-.108.025l-3.312.375a.487.487 0 01-.108 0l-3.625-.375a.47.47 0 01-.104-.022l-3.25-1.062a.54.54 0 01-.114-.054l-2.937-1.875a.556.556 0 01-.081-.064l-2.625-2.562a.5.5 0 01-.073-.092l-2.125-3.375a.516.516 0 01-.047-.094l-1.562-4.25a.487.487 0 01-.023-.083l-.945-5.251-.312-6.116.321-5.63.937-4.813a.493.493 0 01.025-.084l1.562-4.062a.498.498 0 01.05-.096l2.187-3.313a.52.52 0 01.072-.086l2.688-2.563a.45.45 0 01.084-.064l3.062-1.875a.507.507 0 01.114-.051l3.437-1.063a.501.501 0 01.098-.02zm642.736-1.25l-3.957.364-3.58 1.214-3.216 1.942-2.858 2.797-2.378 3.597-1.714 4.47-.992 5.33-.367 6.188.311 6.222 1.048 5.361 1.653 4.408 2.378 3.598 2.796 2.797 3.215 1.941 3.519 1.213 3.831.365 3.897-.365 3.516-1.152 3.152-1.94 2.793-2.732 2.253-3.592 1.655-4.537 1.055-5.585.304-6.493-.31-6.04-1.048-5.236-1.653-4.41-2.315-3.534-2.796-2.734-3.094-1.881-3.394-1.212zm-.045-1.001a.502.502 0 01.095 0l3.813.375c.04.004.08.013.119.027l3.5 1.25a.494.494 0 01.091.044l3.188 1.937c.033.02.063.043.09.07l2.875 2.813a.451.451 0 01.068.083l2.375 3.625c.021.03.037.064.05.098l1.688 4.5a.519.519 0 01.022.078l1.063 5.312a.877.877 0 01.009.073l.312 6.174-.32 6.632-1.063 5.625a.432.432 0 01-.022.078l-1.687 4.625a.555.555 0 01-.046.095l-2.313 3.687a.498.498 0 01-.074.092l-2.875 2.812a.528.528 0 01-.087.069l-3.25 2a.518.518 0 01-.107.049l-3.625 1.188a.49.49 0 01-.109.022l-4 .375a.492.492 0 01-.094 0l-3.937-.375a.51.51 0 01-.116-.025l-3.625-1.25a.434.434 0 01-.095-.045l-3.313-2a.477.477 0 01-.095-.074l-2.875-2.875a.468.468 0 01-.063-.078l-2.438-3.687a.479.479 0 01-.051-.101l-1.687-4.5a.422.422 0 01-.023-.079l-1.062-5.438a.418.418 0 01-.009-.071l-.312-6.367.382-6.312 1-5.375a.53.53 0 01.025-.087l1.75-4.563a.503.503 0 01.05-.096l2.437-3.688a.491.491 0 01.068-.081l2.937-2.875a.507.507 0 01.091-.071l3.313-2a.5.5 0 01.098-.046l3.687-1.25a.501.501 0 01.115-.024zm-840.7-2.75l-4.27.427-3.82 1.334-3.338 2.245-2.929 3.112-1.575 2.484-1.232 3.082-.918 3.625-.585 3.626h37.016l-.722-4.61-1.225-4.337-1.708-3.538-2.118-2.722-2.6-2.056-2.91-1.455-3.344-.912zm325.001 0l-4.271.427-3.821 1.334-3.337 2.245-2.929 3.112-1.575 2.484-1.233 3.082-.917 3.625-.585 3.626h37.016l-.722-4.61-1.225-4.337-1.708-3.537-2.118-2.723-2.599-2.056-2.91-1.455-3.345-.912zm.036-1l3.813.312a.49.49 0 01.09.016l3.438.938c.032.008.062.02.092.035l3 1.5a.483.483 0 01.086.055l2.688 2.125a.49.49 0 01.084.085l2.188 2.812c.022.028.04.058.056.09l1.75 3.625a.583.583 0 01.031.082l1.262 4.496.813 5.187a.502.502 0 01-.494.577h-38.188a.5.5 0 01-.493-.58l.696-4.293.958-3.75 1.25-3.125a.504.504 0 01.042-.082l1.625-2.562a.487.487 0 01.058-.075l3-3.188a.517.517 0 01.085-.072l3.438-2.313a.499.499 0 01.114-.057l3.937-1.375a.506.506 0 01.116-.025l4.374-.438a.504.504 0 01.091 0zm-325 0l3.813.312c.03.003.06.008.09.016l3.438.938c.032.008.062.02.092.035l3 1.5c.03.015.06.033.086.055l2.688 2.125c.031.025.06.053.084.085l2.188 2.812c.022.028.04.058.055.09l1.75 3.625a.499.499 0 01.031.082l1.263 4.496.813 5.187a.5.5 0 01-.494.577H57.8a.5.5 0 01-.493-.58l.696-4.293.958-3.75 1.25-3.125a.504.504 0 01.042-.082l1.625-2.562a.508.508 0 01.058-.075l3-3.188a.497.497 0 01.085-.072l3.438-2.313a.5.5 0 01.114-.057l3.937-1.375a.499.499 0 01.115-.025l4.375-.438a.498.498 0 01.091 0zm584.353-21.94l-8.4.31-7.641.867-6.754 1.422-6.016 2.044-3.516 1.6-3.468 2.043-3.466 2.411-3.33 2.77-6.031 6.466-4.515 7.112-2.274 5.4-1.676 6.132-1.057 6.757-.313 7.399.246 7.074.865 6.325 1.356 5.564 1.848 4.816 2.344 4.325 2.85 4.03 3.149 3.771 3.648 3.466 4.015 3.093 4.324 2.598 4.766 2.169 5.14 1.737 5.648 1.305 6.342.933 6.972.562 7.656.187 7.959-.309 7.202-.867 6.439-1.42 5.696-2.039 5.079-2.536 4.639-2.965 4.2-3.453 3.652-3.957 3.218-4.388 2.664-4.703 2.233-5.143 1.623-4.98-35.882-4.075-1.323 3.443-1.75 3.313a.483.483 0 01-.05.077l-2.125 2.687a.477.477 0 01-.053.057l-2.438 2.25a.491.491 0 01-.077.059l-2.75 1.688a.468.468 0 01-.078.038l-3 1.188a.499.499 0 01-.075.023l-3.375.75a.646.646 0 01-.075.011l-3.687.25a.66.66 0 01-.077-.001l-4.375-.375a.459.459 0 01-.109-.022l-3.937-1.25a.428.428 0 01-.093-.04l-3.563-2a.565.565 0 01-.09-.064l-3.125-2.813a.523.523 0 01-.073-.083l-2.563-3.625a.46.46 0 01-.05-.089l-1.875-4.313a.472.472 0 01-.03-.092l-1.125-5.125a.485.485 0 01-.011-.075l-.375-5.936.384-6.632 1.125-5.625a.594.594 0 01.024-.083l1.875-4.813a.544.544 0 01.049-.094l2.563-3.875a.476.476 0 01.078-.091l3.25-3a.483.483 0 01.086-.064l3.625-2.126a.513.513 0 01.101-.045l4.125-1.312a.505.505 0 01.104-.021l4.563-.438a.481.481 0 01.073-.001l3.694.195 3.25.625a.506.506 0 01.082.024l2.812 1.062c.025.01.05.021.073.034l2.5 1.438a.5.5 0 01.081.058l2.062 1.812c.024.021.046.044.065.069l1.75 2.25a.537.537 0 01.048.075l1.375 2.625a.434.434 0 01.03.068l.928 2.677 35.402-4.737-2.879-7.37-4.021-6.928-5.005-5.87-5.928-4.878-7.104-3.83-8.67-2.787-10.095-1.614zm-261 0l-6.463.247-6.086.682-5.764 1.113-5.392 1.609-5.016 2.04-4.637 2.47-4.272 2.969-3.961 3.4-3.528 3.771-3.033 4.02-2.599 4.323-2.107 4.643-1.673 4.888-1.179 5.137-.684 5.46-.251 5.76.492 7.999 1.421 7.436 2.3 6.902 3.259 6.343 4.024 5.702 4.474 4.908 5.004 4.016 5.435 3.212 6.243 2.472 7.287 1.732 8.394 1.059 9.461.375 10.833-.434 9.502-1.176 8.149-2.053 6.801-2.905 5.869-3.769 5.507-4.888 5.001-5.921 4.115-6.37-37.117-3.463-3.332 3.689a.477.477 0 01-.066.061l-3.25 2.5a.498.498 0 01-.114.066l-5.313 2.188a.522.522 0 01-.129.034l-5.562.687a.467.467 0 01-.112.001l-4.313-.437a.55.55 0 01-.098-.02l-3.812-1.188a.523.523 0 01-.106-.046l-3.5-2.063a.476.476 0 01-.092-.07l-3-2.875a.471.471 0 01-.062-.072l-1.812-2.562a.467.467 0 01-.048-.084l-1.461-3.251-1.14-3.876-.687-4.375a.5.5 0 01.494-.578h77.187l.001-3.852-.434-9.454-1.175-8.502-2.053-7.653-2.846-6.62-3.585-5.81-4.387-5.067-5.067-4.387-5.869-3.584-6.807-2.846-7.905-2.042-9.081-1.184zm-325 0l-6.463.247-6.086.682-5.764 1.113-5.392 1.609-5.016 2.04-4.637 2.47-4.272 2.969-3.96 3.4-3.53 3.771-3.032 4.02-2.599 4.323-2.107 4.643-1.673 4.888-1.18 5.137-.683 5.46-.25 5.76.491 7.999 1.421 7.436 2.3 6.902 3.26 6.343 4.023 5.702 4.474 4.908 5.004 4.016 5.435 3.212 6.243 2.472 7.287 1.732 8.395 1.059 9.46.375 10.833-.434 9.502-1.176 8.149-2.053 6.801-2.905 5.869-3.769 5.507-4.888 5.001-5.921 4.115-6.37-37.117-3.463-3.332 3.689a.497.497 0 01-.066.061l-3.25 2.5a.506.506 0 01-.114.066l-5.313 2.188a.522.522 0 01-.129.034l-5.562.687a.465.465 0 01-.112.001l-4.313-.437a.546.546 0 01-.098-.02l-3.812-1.188a.5.5 0 01-.106-.046l-3.5-2.063a.465.465 0 01-.092-.07l-3-2.875a.49.49 0 01-.062-.072l-1.813-2.562a.51.51 0 01-.047-.084l-1.461-3.251-1.14-3.876-.687-4.375a.5.5 0 01.494-.578h77.187l.001-3.852-.434-9.454-1.175-8.502-2.053-7.653-2.846-6.62-3.585-5.81-4.387-5.067-5.067-4.387-5.869-3.584-6.807-2.846-7.905-2.042-9.081-1.184zm841.751 0l-6.401.247-6.081.68-5.77 1.178-5.387 1.606-5.018 2.104-4.704 2.534-4.395 3.03-4.027 3.466-3.654 3.836-3.154 4.077-2.604 4.336-2.227 4.568-1.673 4.889-1.18 5.081-.745 5.328-.25 5.64.308 6.018.801 5.693 1.418 5.44 2.041 5.079 2.531 4.824 3.151 4.578 3.715 4.214 4.268 3.963 3.903 2.852 4.14 2.537 4.46 2.108 4.701 1.735 5.093 1.306 5.269.993 5.655.561 5.902.187 6.59-.247 6.273-.682 5.829-1.114 5.511-1.606 5.081-2.105 4.768-2.535 4.391-2.965 4.024-3.463 3.591-3.835 3.098-4.085 2.659-4.322 2.106-4.578 1.675-4.893 1.24-5.133.684-5.397.25-5.647-.185-5.023-.555-4.828-.989-4.646-1.359-4.456-1.731-4.208-2.102-4.023-2.468-3.832-2.903-3.586-4.079-4.085-4.514-3.528-5.006-3.034-5.451-2.418-5.951-1.925-6.396-1.368-6.829-.87zm-.039-1l7.411.25 6.921.88 6.479 1.381 6.049 1.951 5.549 2.456 5.119 3.092 4.612 3.596 4.17 4.166 2.973 3.664 2.531 3.918 2.148 4.102 1.77 4.291 1.39 4.545 1.011 4.73.57 4.921.191 5.101-.25 5.728-.691 5.479-1.26 5.242-1.701 4.982-2.143 4.672-2.716 4.428-3.153 4.165-3.658 3.914-4.101 3.538-4.484 3.035-4.858 2.59-5.168 2.145-5.614 1.643-5.921 1.136-6.353.694-6.66.253-5.972-.188-5.721-.565-5.356-1.006-5.156-1.319-4.799-1.765-4.541-2.142-4.235-2.589-3.971-2.897-4.358-4.038-3.785-4.285-3.224-4.672-2.593-4.926-2.084-5.171-1.457-5.561-.824-5.806-.317-6.107.25-5.735.754-5.422 1.196-5.169 1.701-4.986 2.274-4.682 2.645-4.414 3.221-4.173 3.721-3.914 4.098-3.534 4.48-3.096 4.797-2.59 5.106-2.147 5.488-1.643 5.856-1.198 6.169-.695zm-516.75 0l10.353.438 9.168 1.192 8.061 2.074a.513.513 0 01.068.023l6.875 2.875c.023.01.046.02.067.034l5.938 3.625a.55.55 0 01.067.049l5.125 4.437a.443.443 0 01.05.051l4.438 5.125c.017.02.033.042.047.065l3.625 5.875a.53.53 0 01.034.065l2.875 6.687c.01.022.017.045.024.068l2.062 7.688 1.2 8.623.442 9.546v4.398a.5.5 0 01-.5.5h-77.103l.597 3.797 1.111 3.749 1.394 3.079 1.757 2.485 2.923 2.801 3.4 2.004 3.709 1.155 4.207.427 5.44-.673 5.188-2.136 3.162-2.432 3.469-3.841a.5.5 0 01.418-.163l38.187 3.563a.502.502 0 01.374.769l-4.563 7.062-5.1 6.051a.493.493 0 01-.05.052l-5.563 4.937a.48.48 0 01-.062.047l-5.937 3.813a.522.522 0 01-.074.039l-6.875 2.937a.496.496 0 01-.074.025l-8.188 2.063-9.623 1.199-10.916.44-9.54-.374-8.48-1.067-7.428-1.759a.505.505 0 01-.069-.022l-6.312-2.5a.463.463 0 01-.071-.034l-5.5-3.25a.467.467 0 01-.058-.041l-5.063-4.062a.468.468 0 01-.056-.053l-4.5-4.938-4.102-5.798-3.348-6.497a.487.487 0 01-.03-.071l-2.313-6.937-1.454-7.564-.508-8.126.25-5.865.691-5.54 1.196-5.238 1.702-4.987 2.142-4.733 2.652-4.425 3.092-4.107 3.596-3.853 4.04-3.475 4.353-3.031 4.737-2.53 5.11-2.085 5.483-1.641 5.86-1.137 6.164-.694zm-325 0l10.353.438 9.168 1.192 8.061 2.074a.513.513 0 01.068.023l6.875 2.875c.023.01.046.02.067.034l5.938 3.625a.55.55 0 01.067.049l5.125 4.437a.443.443 0 01.05.051l4.438 5.125c.017.02.033.042.047.065l3.625 5.875a.53.53 0 01.034.065l2.875 6.687c.01.022.017.045.024.068l2.062 7.688 1.2 8.623.442 9.546v4.398a.5.5 0 01-.5.5H58.324l.596 3.797 1.11 3.749 1.395 3.079 1.757 2.485 2.923 2.801 3.4 2.004 3.71 1.155 4.206.427 5.44-.673 5.188-2.136 3.162-2.432 3.47-3.841a.5.5 0 01.417-.163l38.187 3.563a.502.502 0 01.374.769l-4.563 7.062-5.1 6.051a.493.493 0 01-.05.052l-5.563 4.937a.48.48 0 01-.062.047l-5.937 3.813a.522.522 0 01-.074.039l-6.875 2.937a.496.496 0 01-.074.025l-8.188 2.063-9.623 1.199-10.916.44-9.54-.374-8.48-1.067-7.428-1.759a.55.55 0 01-.069-.022l-6.312-2.5a.468.468 0 01-.07-.034l-5.5-3.25a.474.474 0 01-.06-.041l-5.062-4.062a.497.497 0 01-.056-.053l-4.5-4.938-4.102-5.798-3.348-6.497a.521.521 0 01-.03-.071l-2.313-6.937-1.454-7.564-.508-8.126.25-5.865.69-5.54 1.197-5.238 1.702-4.987 2.142-4.733 2.652-4.425 3.092-4.107 3.596-3.853 4.04-3.475 4.353-3.031 4.738-2.53 5.109-2.085 5.483-1.641 5.86-1.137 6.165-.694zm586.001 0l11.667.563 10.243 1.631c.025.004.05.01.074.018l8.75 2.812a.5.5 0 01.084.036l7.188 3.875a.513.513 0 01.08.054l6 4.938c.023.019.044.04.063.062l5.062 5.937a.46.46 0 01.052.073l4.063 7a.451.451 0 01.033.07l3.125 8a.5.5 0 01-.399.677l-36.438 4.875a.5.5 0 01-.539-.332l-1.05-3.027-1.337-2.553-1.693-2.177-1.99-1.748-2.422-1.393-2.734-1.033-3.208-.617-3.519-.177-4.473.429-4.021 1.28-3.531 2.069-3.166 2.922-2.499 3.78-1.84 4.722-1.116 5.582-.367 6.493.373 5.777 1.106 5.04 1.835 4.221 2.501 3.537 3.042 2.738 3.469 1.948 3.836 1.217 4.281.367 3.612-.244 3.299-.734 2.923-1.156 2.671-1.64 2.373-2.19 2.072-2.621 1.729-3.272 1.412-3.695a.5.5 0 01.524-.318l36.875 4.188a.5.5 0 01.419.651l-1.813 5.563-2.266 5.231-2.712 4.798-3.281 4.486-3.724 4.044-4.299 3.547-4.736 3.035-5.171 2.589-5.805 2.086-6.561 1.455-7.298.883-8.04.316-7.719-.188-7.028-.564-6.408-.941-5.727-1.32-5.235-1.763-4.86-2.206-4.425-2.652-4.11-3.157-3.727-3.534-3.227-3.854-2.899-4.095-2.407-4.425-1.902-4.934-1.394-5.686-.885-6.426-.254-7.175.313-7.476 1.068-6.869 1.699-6.242 2.334-5.562a.514.514 0 01.039-.074l4.562-7.188a.54.54 0 01.057-.073l6.062-6.5 3.421-2.855 3.534-2.464 3.532-2.083 3.609-1.649 6.109-2.081 6.87-1.453 7.734-.883zm73.268-35.187v138.562h37.75l.001-48.019.255-6.43.812-5.375a.534.534 0 01.019-.08l1.375-4.25a.464.464 0 01.049-.105l1.937-3.188a.51.51 0 01.078-.098l2.375-2.313a.58.58 0 01.083-.065l2.688-1.688a.508.508 0 01.108-.05l3-1a.496.496 0 01.112-.024l3.375-.313a.496.496 0 01.087 0l3 .25a.484.484 0 01.093.017l2.688.75c.034.01.067.023.099.04l2.25 1.187c.036.02.071.043.101.07l1.938 1.75c.03.028.056.058.079.092l1.563 2.313c.022.033.041.069.055.107l1.125 3.063c.01.028.018.058.023.088l.631 3.743.251 4.466v55.062h37.938l.001-63.72-.56-9.273-1.733-7.918-2.772-6.653-3.93-5.344-4.85-4.174-5.711-2.948-6.593-1.725-7.328-.62-5.146.246-4.693.614-4.389 1.11-4.061 1.472-3.833 2.037-3.896 2.594-3.908 3.224-3.938 3.813a.5.5 0 01-.848-.36V16.971zm-515.812 0v138.562h35.25v-14.437a.5.5 0 01.882-.322l3.659 4.343 3.525 3.529 3.395 2.781 3.217 2.104 4.216 1.899 4.501 1.36 4.755.807 4.88.25 5.776-.373 5.46-1.16 5.276-1.925 4.935-2.714 4.563-3.452 4.008-4.256 3.506-5.036 2.977-5.822 2.421-6.508 1.74-7.008.996-7.521.374-7.961-.185-6.028-.557-5.588-.927-5.265-1.363-4.9-1.666-4.576-2.034-4.137-2.47-3.833-2.776-3.46-3.087-3.09-3.273-2.658-3.448-2.283-3.698-1.852-3.89-1.423-4.072-1.052-4.262-.62-4.458-.188-4.329.183-4.078.554-3.945.921-3.771 1.358-3.569 1.657-3.338 2.1-3.145 2.4-3 2.876a.5.5 0 01-.846-.361V16.97zm-63.875 0v138.562h37.875V16.971zm579.187-1h38.75a.5.5 0 01.5.5v50.257l3.09-2.991 3.967-3.277 3.978-2.655 3.918-2.088 4.189-1.529 4.485-1.14 4.808-.635 5.229-.254 7.503.626a.497.497 0 01.085.015l6.687 1.75c.036.009.07.022.103.04l5.813 3c.034.017.067.039.096.064l4.938 4.25a.512.512 0 01.077.083l4 5.438a.511.511 0 01.058.104l2.813 6.75c.011.027.02.056.027.085l1.75 8c.005.025.009.05.01.077l.563 9.312.001 64.28a.5.5 0 01-.5.5h-38.938a.5.5 0 01-.5-.5v-55.562l-.249-4.41-.611-3.586-1.088-2.962-1.495-2.212-1.845-1.667-2.148-1.133-2.59-.723-2.909-.243-3.274.303-2.888.963-2.592 1.628-2.292 2.23-1.874 3.084-1.344 4.155-.806 5.335-.245 6.32v48.48a.5.5 0 01-.5.5h-38.75a.5.5 0 01-.5-.5V16.471a.5.5 0 01.5-.5zm-515.812 0h39.125a.5.5 0 01.5.5v47.203l2.154-2.064 3.23-2.474 3.412-2.15 3.68-1.718 3.854-1.392 4.056-.954 4.171-.572 4.421-.191 4.543.187 4.363.63 4.178 1.073 3.984 1.452 3.802 1.898 3.552 2.342 3.352 2.717 3.164 3.16 2.848 3.54 2.531 3.917 2.091 4.237 1.708 4.675 1.387 4.975.949 5.36.567 5.662.19 6.096-.375 8.039-1.004 7.605-1.76 7.117-2.455 6.616-3.023 5.929-3.597 5.183a.508.508 0 01-.047.057l-4.062 4.313a.484.484 0 01-.063.056l-4.625 3.5a.617.617 0 01-.06.039l-5 2.75a.629.629 0 01-.07.032l-5.312 1.937-5.63 1.207a.593.593 0 01-.072.01l-5.813.375-4.995-.25-4.87-.819-4.624-1.389-4.373-1.96a.454.454 0 01-.068-.038l-3.25-2.125-3.481-2.844-3.599-3.596-2.834-3.36v13.569a.5.5 0 01-.5.5h-36.25a.5.5 0 01-.5-.5V16.471a.5.5 0 01.5-.5zm-63.875 0h38.875a.5.5 0 01.5.5v139.562a.5.5 0 01-.5.5h-38.875a.5.5 0 01-.5-.5V16.471a.5.5 0 01.5-.5z" fill="#015B84" fill-rule="evenodd"/><path d="M270.727 77.375c-5.269 0-9.569 1.952-12.902 5.856-3.332 3.904-4.999 9.823-4.999 17.758 0 8.696 1.635 14.996 4.904 18.9 3.269 3.904 7.411 5.855 12.426 5.855 4.633 0 8.521-1.92 11.663-5.76 3.142-3.84 4.714-10.299 4.714-19.376 0-7.998-1.54-13.87-4.618-17.615-3.079-3.745-6.808-5.618-11.188-5.618zm642.667-2.285c-5.649 0-10.315 2.174-13.996 6.522-3.682 4.349-5.523 10.966-5.523 19.853 0 9.013 1.825 15.678 5.475 19.995 3.65 4.316 8.236 6.474 13.759 6.474 5.586 0 10.172-2.126 13.758-6.379 3.587-4.253 5.38-11.077 5.38-20.471 0-8.76-1.809-15.282-5.427-19.567-3.619-4.284-8.094-6.427-13.426-6.427zM397.68 71.377c-6.157 0-11.077 2.444-14.758 7.331-2.349 3.047-3.841 7.586-4.475 13.616h38.181c-.762-7.49-2.777-12.854-6.046-16.091-3.27-3.238-7.57-4.856-12.902-4.856zm-325 0c-6.157 0-11.077 2.444-14.758 7.331-2.349 3.047-3.84 7.586-4.475 13.616h38.18c-.761-7.49-2.776-12.854-6.045-16.091-3.27-3.238-7.57-4.856-12.902-4.856zM912.823 48.43c20.249 0 35.547 5.871 45.894 17.615 8.315 9.458 12.473 21.106 12.473 34.944 0 15.551-5.158 28.294-15.473 38.228-10.315 9.934-24.581 14.901-42.799 14.901-16.25 0-29.389-4.126-39.419-12.377-12.314-10.22-18.471-23.614-18.471-40.181 0-15.425 5.205-28.136 15.615-38.134 10.41-9.997 24.47-14.996 42.18-14.996zm-255.762 0c16.504 0 29.088 2.952 37.752 8.855 8.665 5.903 14.743 14.536 18.234 25.898L676.58 88.04c-1.143-4.316-3.222-7.57-6.237-9.76-3.015-2.19-7.062-3.284-12.14-3.284-6.411 0-11.6 2.297-15.567 6.89-3.968 4.594-5.951 11.548-5.951 20.864 0 8.3 1.968 14.605 5.903 18.913 3.936 4.309 8.95 6.463 15.044 6.463 5.078 0 9.347-1.301 12.806-3.904 3.46-2.603 6.047-6.602 7.76-11.997l36.849 4.189c-2.032 7.681-5.364 14.33-9.998 19.948-4.634 5.618-10.553 9.982-17.757 13.092-7.205 3.11-16.362 4.665-27.47 4.665-10.728 0-19.662-.998-26.803-2.996-7.141-1.997-13.282-5.232-18.424-9.703-5.142-4.471-9.172-9.719-12.092-15.744s-4.38-14.015-4.38-23.972c0-10.402 1.777-19.059 5.332-25.972 2.602-5.073 6.157-9.623 10.664-13.65 4.507-4.028 9.141-7.024 13.901-8.99 7.554-3.107 17.234-4.661 29.041-4.661zm-261 0c14.473 0 25.899 2.19 34.278 6.57 8.379 4.38 14.758 10.727 19.138 19.043 4.38 8.315 6.57 19.138 6.57 32.468v4.38h-77.696c.699 6.221 2.381 10.854 5.047 13.901 3.745 4.38 8.633 6.57 14.663 6.57 3.808 0 7.427-.952 10.854-2.856 2.095-1.206 4.348-3.333 6.761-6.38l38.181 3.523c-5.84 10.156-12.886 17.44-21.138 21.852-8.252 4.412-20.09 6.617-35.515 6.617-13.394 0-23.931-1.888-31.611-5.665-7.681-3.777-14.045-9.775-19.091-17.995-5.046-8.221-7.57-17.885-7.57-28.993 0-15.806 5.063-28.597 15.187-38.372 10.125-9.775 24.105-14.663 41.942-14.663zm-325 0c14.473 0 25.899 2.19 34.278 6.57 8.379 4.38 14.758 10.727 19.138 19.043 4.38 8.315 6.57 19.138 6.57 32.468v4.38H53.351c.699 6.221 2.38 10.854 5.047 13.901 3.745 4.38 8.633 6.57 14.663 6.57 3.808 0 7.427-.952 10.854-2.856 2.095-1.206 4.348-3.333 6.76-6.38l38.182 3.523c-5.84 10.156-12.886 17.44-21.138 21.852-8.252 4.412-20.09 6.617-35.515 6.617-13.394 0-23.93-1.888-31.611-5.665-7.681-3.777-14.045-9.775-19.091-17.995-5.046-8.221-7.57-17.885-7.57-28.993 0-15.806 5.063-28.597 15.187-38.372C39.244 53.318 53.224 48.43 71.061 48.43zm658.727-36.182h38.753v51.416c5.268-5.459 10.505-9.363 15.71-11.711 5.205-2.349 11.363-3.523 18.472-3.523 10.537 0 18.837 3.206 24.899 9.617 6.062 6.41 9.093 16.25 9.093 29.516v64.27h-38.943V96.228c0-6.348-1.175-10.839-3.523-13.473-2.349-2.634-5.65-3.951-9.903-3.951-4.697 0-8.505 1.777-11.425 5.331-2.92 3.555-4.38 9.935-4.38 19.139v48.559h-38.753zm-515.809 0h39.133v48.37c3.872-4.063 8.268-7.11 13.187-9.141 4.92-2.031 10.363-3.047 16.33-3.047 12.314 0 22.502 4.428 30.564 13.282 8.061 8.855 12.092 21.567 12.092 38.134 0 11.045-1.841 20.773-5.523 29.183-3.681 8.411-8.775 14.695-15.282 18.853-6.506 4.158-13.726 6.236-21.661 6.236-6.792 0-13.013-1.46-18.662-4.379-4.253-2.286-8.887-6.57-13.901-12.854v14.948h-36.277zm-63.858 0h38.848v139.585h-38.848z" stroke="#48ACC3" stroke-linejoin="round" stroke-miterlimit="10" fill="#48ACC3" fill-rule="evenodd"/><text fill-opacity="0" font-family="Arial,Arial_MSFontService,sans-serif" font-size="141.87" x="13.932" y="136.385">elbe cho</text><path d="M574.802 45.779h23.845c-.647 36.648-4.394 64.632-11.241 83.953-6.847 19.321-16.512 28.981-28.994 28.981-6.594 0-12.116-2.353-16.567-7.058-4.45-4.706-9.506-13.481-15.167-26.324l-4.829-11.626c-3.613-8.746-6.38-14.587-8.301-17.521-1.921-2.934-4.029-4.401-6.325-4.401-5.123 0-8.923 4.346-11.402 13.037-2.48 8.692-4.079 26.767-4.8 54.225h-23.845c1.329-75.29 14.741-112.934 40.235-112.934 6.064 0 11.76 2.546 17.087 7.64 5.327 5.093 11.764 17.327 19.311 36.703 5.74 15.058 10.67 22.587 14.792 22.587 5.652 0 9.609-4.872 11.871-14.615 2.262-9.743 3.706-27.292 4.33-52.647z" fill="#015B84" fill-rule="evenodd"/><path d="M575.287 46.279l-.237 8.647-.375 8.444-.438 7.695-.501 6.946-.563 6.262-.628 5.521-.754 4.772-.82 4.032-.95 3.476-1.083 2.986-1.284 2.621-1.375 2.063a.502.502 0 01-.062.076l-1.563 1.562a.443.443 0 01-.083.067l-1.75 1.125a.45.45 0 01-.098.049l-1.875.688a.538.538 0 01-.112.027l-2.062.25a.503.503 0 01-.177-.011l-1.563-.375a.478.478 0 01-.149-.063l-1.688-1.062a.453.453 0 01-.087-.07l-1.75-1.75a.368.368 0 01-.051-.06l-1.839-2.54-1.891-3.217-1.948-3.898-2.007-4.578-2.124-5.31-2.81-6.932-2.616-6.23-2.621-5.554-2.426-4.915-2.361-4.227-2.233-3.537-2.088-2.892-2.038-2.224-4.001-3.262-4.17-2.33-4.218-1.406-4.396-.489-4.525.428-4.276 1.283-3.978 2.203-3.746 3.01-3.448 3.878-3.14 4.798-2.92 5.71-2.674 6.589-2.366 7.468-2.057 8.352-1.809 9.227-1.498 10.108-1.248 11.048-.999 11.86-.687 12.799-.361 13.174h22.877l.297-9.396.375-9.01.501-8.07.563-7.261.628-6.33.753-5.52.818-4.591.886-3.727 1.012-3.095 1.089-2.68 1.25-2.25a.39.39 0 01.039-.06l1.375-1.812a.43.43 0 01.052-.059l1.5-1.437a.496.496 0 01.076-.06l1.563-1a.515.515 0 01.101-.05l1.75-.625a.507.507 0 01.119-.027l1.875-.187a.502.502 0 01.123.003l1.687.25a.507.507 0 01.151.047l1.625.813a.5.5 0 01.106.071l1.563 1.375c.026.024.05.05.071.078l1.466 1.98 1.644 2.785 1.881 3.825 2.255 4.949 2.564 6.003 4.87 11.615 2.056 4.61 2.06 4.245 1.927 3.856 1.927 3.481 1.866 3.049 1.794 2.723 1.728 2.286 1.64 1.89 3.522 3.09 3.845 2.135 4.213 1.283 4.652.428 4.463-.428 4.212-1.343 3.914-2.201 3.684-3.132 3.435-3.981 3.221-4.886 2.919-5.835 2.677-6.782 2.428-7.594 2.12-8.478 1.871-9.227 1.56-10.105 1.249-10.858.936-11.738.687-12.486.361-12.861zm-.486-1h23.875a.499.499 0 01.5.514l-.375 13.375-.688 12.513-.939 11.763-1.251 10.892-1.565 10.144-1.879 9.273-2.13 8.522-2.447 7.656-2.698 6.844-2.956 5.915-3.279 4.989-3.539 4.114a.7.7 0 01-.055.054l-3.75 3.188a.62.62 0 01-.079.055l-4 2.25a.543.543 0 01-.093.04l-4.313 1.375a.457.457 0 01-.104.021l-4.562.438a.492.492 0 01-.094 0l-4.75-.437a.492.492 0 01-.1-.02l-4.312-1.312a.526.526 0 01-.097-.042l-3.938-2.187a.523.523 0 01-.087-.061l-3.562-3.125-1.735-1.985-1.772-2.34-1.831-2.776-1.884-3.077-1.948-3.519-1.948-3.893-2.065-4.255-2.069-4.64-4.88-11.635-2.561-5.997-2.245-4.927-1.869-3.8-1.607-2.715-1.376-1.852-1.475-1.297-1.495-.748-1.547-.23-1.753.176-1.639.586-1.473.943-1.437 1.376-1.329 1.753-1.233 2.219-1.036 2.569-.988 3.03-.864 3.648-.807 4.535-.747 5.48-.622 6.294-.562 7.239-.5 8.055-.374 8.99-.312 9.87a.5.5 0 01-.5.484h-23.875a.498.498 0 01-.5-.513l.375-13.688.688-12.826 1.001-11.89 1.252-11.076 1.502-10.142 1.816-9.273 2.068-8.399 2.384-7.531 2.701-6.662 2.955-5.79 3.214-4.92a.608.608 0 01.045-.06l3.5-3.937a.52.52 0 01.061-.058l3.812-3.062a.55.55 0 01.071-.048l4.063-2.25a.497.497 0 01.098-.041l4.375-1.313a.512.512 0 01.097-.019l4.625-.437a.49.49 0 01.102 0l4.5.5c.035.005.07.012.103.023l4.313 1.438c.029.01.058.023.085.038l4.25 2.375c.026.014.05.03.072.049l4.063 3.312a.445.445 0 01.052.05l2.063 2.25 2.162 2.982 2.267 3.589 2.389 4.273 2.449 4.96 2.629 5.57 2.634 6.27 2.815 6.943 2.126 5.315 1.993 4.548 1.927 3.852 1.859 3.157 1.763 2.428 1.682 1.683 1.571.988 1.395.335 1.915-.232 1.769-.649 1.658-1.066 1.49-1.489 1.347-2.022 1.217-2.504 1.042-2.888.925-3.4.805-3.967.746-4.729.622-5.478.561-6.239.5-6.928.437-7.68.374-8.431.25-9.117a.5.5 0 01.5-.486z" fill="#015B84" fill-rule="evenodd"/><path d="M571.925 43h23.845c-.647 36.648-4.394 64.633-11.241 83.953-6.847 19.321-16.512 28.981-28.994 28.981-6.594 0-12.117-2.352-16.567-7.058-4.451-4.706-9.506-13.48-15.167-26.324l-4.829-11.625c-3.614-8.747-6.381-14.588-8.301-17.522-1.921-2.934-4.029-4.4-6.326-4.4-5.122 0-8.923 4.345-11.402 13.036-2.479 8.692-4.079 26.767-4.799 54.226h-23.845c1.329-75.29 14.741-112.935 40.235-112.935 6.064 0 11.76 2.547 17.086 7.64 5.327 5.093 11.764 17.328 19.312 36.704 5.739 15.057 10.67 22.586 14.791 22.586 5.652 0 9.61-4.871 11.872-14.615 2.262-9.743 3.705-27.292 4.33-52.647z" stroke="#48ACC3" stroke-linejoin="round" stroke-miterlimit="10" fill="#48ACC3" fill-rule="evenodd"/><text fill-opacity="0" font-family="Arial,Arial_MSFontService,sans-serif" font-size="113.266" x="464.299" y="142.108">~</text></g></svg>